<svg xmlns="http://www.w3.org/2000/svg" viewBox="0 0 32 32" width="32" height="32">
  <path d="M15.91 0C13.81 0 12.15.17 10.83.78c-1.7.8-1.8 2.18-1.8 4.08v3.01h8v1.2H7.59c-1.8 0-3.37 1.08-3.86 3.13-.57 2.37-.66 3.87 0 6.19.48 1.7 1.63 3.13 3.43 3.13h2.22v-3.01c0-1.97 1.66-3.66 3.62-3.66h7.98c1.6 0 2.88-1.35 2.88-2.96V4.86c0-1.57-.75-2.72-2.45-3.43C20.18.25 18.22 0 15.91 0zm-4.34 2.59a1.4 1.4 0 011.39 1.41 1.4 1.4 0 01-1.39 1.4 1.4 1.4 0 01-1.4-1.4 1.4 1.4 0 011.4-1.41z" fill="#3776AB"/>
  <path d="M22.59 9.98v3.13c0 2.09-1.72 3.78-3.62 3.78H10.99c-1.56 0-2.88 1.43-2.88 3.05v5.72c0 1.96 1.54 2.9 3.5 3.55 2.47.82 4.82.92 7.22 0 1.57-.6 3.1-1.7 3.1-3.55v-3.07h-7.63v-1.2h10.84c1.8 0 2.49-1.18 3.18-3.13.7-2 .66-3.92 0-6.19-.5-1.69-1.54-3.13-3.33-3.13h-2.21zm-4.27 16.02a1.4 1.4 0 011.4 1.4 1.4 1.4 0 01-1.4 1.4 1.4 1.4 0 01-1.4-1.4 1.4 1.4 0 011.4-1.4z" fill="#FFD43B"/>
</svg>
